<?xml version="1.0" standalone="no"?>
<!DOCTYPE svg PUBLIC "-//W3C//DTD SVG 20010904//EN"
 "http://www.w3.org/TR/2001/REC-SVG-20010904/DTD/svg10.dtd">
<svg version="1.0" xmlns="http://www.w3.org/2000/svg"
 width="356.000000pt" height="356.000000pt" viewBox="0 0 356.000000 356.000000"
 preserveAspectRatio="xMidYMid meet">
<metadata>
Created by potrace 1.14, written by Peter Selinger 2001-2017
</metadata>
<g transform="translate(0.000000,356.000000) scale(0.100000,-0.100000)"
fill="#000000" stroke="none">
<path d="M800 3415 l0 -145 -400 0 c-260 0 -400 -3 -400 -10 0 -6 140 -10 400
-10 l400 0 0 -115 0 -115 -394 0 c-253 0 -397 -4 -401 -10 -4 -7 130 -10 394
-10 l401 0 0 -115 0 -115 -400 0 c-260 0 -400 -3 -400 -10 0 -6 140 -10 400
-10 l400 0 0 -115 0 -115 -400 0 c-260 0 -400 -3 -400 -10 0 -6 140 -10 400
-10 l400 0 0 -115 0 -115 -400 0 c-260 0 -400 -3 -400 -10 0 -6 140 -10 400
-10 l400 0 0 -115 0 -115 -400 0 c-260 0 -400 -3 -400 -10 0 -6 140 -10 400
-10 l400 0 0 -115 0 -115 -400 0 c-260 0 -400 -3 -400 -10 0 -6 140 -10 400
-10 l400 0 0 -115 0 -115 -400 0 c-260 0 -400 -3 -400 -10 0 -6 140 -10 400
-10 l400 0 0 -115 0 -115 -400 0 c-260 0 -400 -3 -400 -10 0 -6 140 -10 400
-10 l400 0 0 -115 0 -115 -400 0 c-260 0 -400 -3 -400 -10 0 -6 140 -10 400
-10 l400 0 0 -116 0 -116 -377 2 c-441 2 -423 3 -423 -10 0 -6 140 -10 400
-10 l400 0 0 -115 0 -115 -400 0 c-260 0 -400 -3 -400 -10 0 -6 140 -10 400
-10 l400 0 0 -113 0 -112 -365 4 c-358 3 -441 -1 -430 -20 4 -5 162 -9 401 -9
l394 0 0 -115 0 -115 -401 0 c-264 0 -398 -3 -394 -10 9 -14 3541 -14 3550 0
4 7 -453 10 -1364 10 l-1371 0 0 115 0 115 1364 0 c899 0 1367 3 1371 10 4 7
-453 10 -1364 10 l-1371 0 0 115 0 115 70 0 70 0 0 -65 0 -65 305 0 305 0 0
65 0 65 197 0 196 0 52 -49 c66 -62 116 -88 203 -102 132 -22 260 19 343 108
l39 43 480 0 c313 0 480 3 480 10 0 7 -165 10 -474 10 l-475 0 16 37 c10 24
16 67 16 116 l1 77 458 0 c299 0 458 3 458 10 0 7 -161 10 -463 10 l-464 0
-19 43 c-27 61 -112 141 -176 166 l-53 20 588 0 c384 1 587 4 587 11 0 7 -338
10 -995 10 l-995 0 0 115 0 115 995 0 c657 0 995 3 995 10 0 7 -338 10 -995
10 l-995 0 0 115 0 115 995 0 c657 0 995 3 995 10 0 7 -338 10 -995 10 l-995
0 0 115 0 115 995 0 c657 0 995 3 995 10 0 7 -338 10 -995 10 l-995 0 0 115 0
115 995 0 c657 0 995 3 995 10 0 7 -338 10 -995 10 l-995 0 0 115 0 115 995 0
c657 0 995 3 995 10 0 7 -338 10 -995 10 l-995 0 0 40 0 40 -305 0 -305 0 0
-40 0 -40 -70 0 -70 0 0 115 0 115 1370 0 c907 0 1370 3 1370 10 0 7 -463 10
-1370 10 l-1370 0 0 115 0 115 53 0 c50 0 53 -2 72 -36 28 -52 108 -120 168
-142 107 -40 240 -36 330 10 52 26 119 89 143 133 l19 35 977 0 c645 0 978 3
978 10 0 7 -331 10 -973 10 l-973 0 9 58 c7 43 6 71 -5 115 l-15 57 979 0
c650 0 977 3 973 10 -4 7 -343 10 -984 10 l-977 0 -32 45 c-60 85 -169 135
-297 135 -127 0 -238 -51 -299 -137 -29 -42 -31 -43 -88 -43 l-58 0 0 115 0
115 1370 0 c907 0 1370 3 1370 10 0 7 -463 10 -1370 10 l-1370 0 0 145 c0 90
-4 145 -10 145 -6 0 -10 -55 -10 -145z m119 -442 c-13 -32 -16 -148 -5 -180 7
-22 5 -23 -43 -23 l-51 0 0 115 0 115 55 0 55 0 -11 -27z m41 -838 l0 -115
-70 0 -70 0 0 115 0 115 70 0 70 0 0 -115z m0 -250 l0 -115 -70 0 -70 0 0 115
0 115 70 0 70 0 0 -115z m0 -250 l0 -115 -70 0 -70 0 0 115 0 115 70 0 70 0 0
-115z m0 -250 l0 -115 -70 0 -70 0 0 115 0 115 70 0 70 0 0 -115z m0 -250 l0
-115 -70 0 -70 0 0 115 0 115 70 0 70 0 0 -115z m0 -250 l0 -115 -70 0 -70 0
0 115 0 115 70 0 70 0 0 -115z m1170 93 c-67 -26 -161 -116 -179 -171 l-13
-37 -184 0 -184 0 0 115 0 115 308 -1 307 0 -55 -21z m-1170 -343 l0 -115 -70
0 -70 0 0 115 0 115 70 0 70 0 0 -115z m966 38 c0 -49 6 -92 17 -115 l16 -38
-195 0 -194 0 0 115 0 115 178 0 177 0 1 -77z"/>
</g>
</svg>
